<svg xmlns="http://www.w3.org/2000/svg" width="1208.992" height="409.943" viewBox="0 0 1208.992 409.943">
  <defs>
    <style>
      .cls-1 {
        fill: #d6e77b;
      }

      .cls-1, .cls-2, .cls-3, .cls-4 {
        stroke: #707070;
      }

      .cls-2 {
        fill: none;
      }

      .cls-3 {
        fill: #9d7213;
      }

      .cls-4 {
        fill: #b6d577;
      }
    </style>
  </defs>
  <g id="Group_92" data-name="Group 92" transform="translate(-355.443 -261.881)">
    <path id="Path_62" data-name="Path 62" class="cls-1" d="M1024.438-1034.609,421.515-911.578l602.924,183.561,603.6-183.561Z" transform="translate(-64.777 1297)"/>
    <line id="Line_30" data-name="Line 30" class="cls-2" y1="134.187" x2="587" transform="translate(461.5 281.5)"/>
    <line id="Line_31" data-name="Line 31" class="cls-2" y1="144" x2="596" transform="translate(568.5 305.5)"/>
    <line id="Line_32" data-name="Line 32" class="cls-2" y1="157.5" x2="591" transform="translate(687.5 328.5)"/>
    <line id="Line_33" data-name="Line 33" class="cls-2" y1="170" x2="603" transform="translate(817.5 355.5)"/>
    <line id="Line_34" data-name="Line 34" class="cls-2" x2="609" y2="170" transform="translate(495.5 355.5)"/>
    <line id="Line_35" data-name="Line 35" class="cls-2" x2="593" y2="158" transform="translate(639.5 328.5)"/>
    <line id="Line_36" data-name="Line 36" class="cls-2" x2="568" y2="156" transform="translate(765.5 300.5)"/>
    <line id="Line_37" data-name="Line 37" class="cls-2" x2="582" y2="139" transform="translate(866.5 281.5)"/>
    <path id="Path_63" data-name="Path 63" class="cls-3" d="M965-601.017v102.153L1568.935-688.98v-96.2Z" transform="translate(-5 1170)"/>
    <path id="Path_64" data-name="Path 64" class="cls-3" d="M361.737-785.177,965.794-595.008v99.862l-604.057-196.1Z" transform="translate(-5.794 1166.281)"/>
    <path id="Path_71" data-name="Path 71" class="cls-4" d="M365.788-785.177s-2.51,48.639,0,48.388,16.863-20.589,19.371-7.175,18.711,3.036,18.265-6.158,20.281,29.384,14.556,31.1c-5.164,1.549,46.489.758,42.091-6.865a8.565,8.565,0,0,0-3.344-2.4C437.091-738.1,476.692-699.405,483.985-698s36.3-.734,37.7-6.625,15.167,9.85,11.24,14.9,30.044,1.032,28.922-4.3,62.3,36.889,42.142,36.6,98.5,27.7,85.128,6.224,46.49,27.132,32.283,25.542,31.839-.5,24.661-11.178,33.265,21.055,21.276,21.748,39.855,3.422,31.72-4.713,31.623,14.647,17.6,16.33,41.388,21.677,29.474,0,35.629,14.793,21.112,14.428,38.6,16.539,25.1,4.589,15.9-17.368,18.06-4.589,3.587,50.078,11.715,35.629,21.988-39.13,27.235-27.752,15.541,64.065,15.786,22.55,0-30.427,0-30.427v-9.638Z" transform="translate(-5 1170)"/>
    <path id="Path_72" data-name="Path 72" class="cls-4" d="M965.242-546.908s40.745-36.881,36.369-15.712,14.582-8.693,8.19-17.01,16.015,17.362,14.867,9.857,8.1-23.713,12.965-16.3,18.012,51.693,18.334,34.845-11.424-57.2-5.273-47.53,9.237,26.507,11.336,24.385,1.465-24.834,7.21-16.868,1.368,15.069,22.085-2.565,9.7-10.783,10.352-4.952S1126.8-574.591,1115.79-600s9.658-.755,15.767-1.443-10.051-42.371-1.534-32.781,18.165,24.072,22.129,17.529,8.411-31.126,12.463-14.667,24.958,18.732,31.557,7.565-8.5-41.546,4.244-19.786,47.783,21.014,63.256-4.656,7.108-48.425,17.419-34.409,39.758,58.43,49.576,34.409-22.7-43.951-1.361-30.642,2.25-28.9,7.971-16.2,37.118,52.339,40.3,27.05,2.956-52.089,9.59-33.105,5.6,28.947,30.111,1.872-13.2,21.183,3.188,11.506,15.566-43.969,18.7-36.846,3.289,46.261,10.112,26.752,7.478-34.978,10.066-26.752,51.827,20.176,43,2.405,12.815-41.656,19.04-30.429,28.488,64.67,30.811,41.225,12.85-38.865,14.681-42.49,1.98-25.309,1.98-25.309v-6.112L965.242-601.442Z" transform="translate(-5 1170)"/>
  </g>
</svg>
