<svg xmlns="http://www.w3.org/2000/svg" width="122.406" height="194.292" viewBox="0 0 122.406 194.292">
  <defs>
    <style>
      .cls-1 {
        fill: #efabba;
      }

      .cls-1, .cls-10, .cls-11, .cls-12, .cls-2, .cls-3, .cls-4, .cls-7, .cls-8, .cls-9 {
        stroke: #707070;
      }

      .cls-2 {
        fill: #f4f4f4;
      }

      .cls-15, .cls-3 {
        fill: none;
      }

      .cls-4 {
        fill: #fff;
      }

      .cls-5 {
        fill: #ec7793;
      }

      .cls-6 {
        fill: #e97892;
      }

      .cls-7 {
        fill: #e44373;
      }

      .cls-8 {
        fill: #e74172;
      }

      .cls-10 {
        fill: #e24677;
      }

      .cls-11 {
        fill: #c20d56;
      }

      .cls-12 {
        fill: #c51153;
      }

      .cls-13, .cls-14 {
        stroke: none;
      }

      .cls-14 {
        fill: #707070;
      }
    </style>
  </defs>
  <g id="Group_93" data-name="Group 93" transform="translate(-350.62 -591.992)">
    <g id="Group_88" data-name="Group 88" transform="translate(360.88 709.075)">
      <path id="Path_75" data-name="Path 75" class="cls-1" d="M311.518-396.2v37.582h-4.545v6.609h-5.09v14h-30.94v16.849H375.9v-16.849H336.408v-14h-5.962v-6.609h-4.674V-396.2Z" transform="translate(-270.943 396.201)"/>
      <path id="Path_76" data-name="Path 76" class="cls-2" d="M374.647-396.2h5.2v32.9H384.4v7.766h6.459v12.557H430.9l-5.465,5.122H384.4V-352h-4.555v-6.617h-5.2Z" transform="translate(-320.017 396.201)"/>
      <path id="Path_77" data-name="Path 77" class="cls-3" d="M466.5-293.706l6.009-5.1v12.264L466.5-276.63Z" transform="translate(-361.543 352.049)"/>
      <path id="Path_78" data-name="Path 78" class="cls-2" d="M274.943-294.078l10.234-5.55h20.407v5.55Z" transform="translate(-274.943 352.42)"/>
    </g>
    <path id="Path_89" data-name="Path 89" class="cls-2" d="M-1480.161,4109.879l6.856-4.691v65.227l-10.589,5.7,3.732,31.728-44.065,20.041-8.828-4.9Z" transform="translate(1938.933 -3511.635)"/>
    <path id="Path_88" data-name="Path 88" class="cls-4" d="M-1631.256,4113.69l16.882,2.482,23,17.754-1.322,2.975h38.268l3.739,19.166-58.372,3.287Z" transform="translate(1982.949 -3515.445)"/>
    <g id="Group_10" data-name="Group 10" transform="matrix(1, 0.017, -0.017, 1, 351.242, 591.541)">
      <path id="Path_26" data-name="Path 26" class="cls-1" d="M19.224,0H66.341L85.325,28,89.61,63.845,45,86.012,0,63.845,3.363,28Z" transform="translate(11.871 32.87)"/>
      <g id="Polygon_1" data-name="Polygon 1" class="cls-5" transform="translate(25.83 0) rotate(76)">
        <path class="cls-13" d="M 59.79452896118164 26.05168151855469 L 1.338033318519592 26.05168151855469 L 30.56628036499023 0.6622963547706604 L 59.79452896118164 26.05168151855469 Z"/>
        <path class="cls-14" d="M 30.56628036499023 1.324600219726562 L 2.676074981689453 25.55168151855469 L 58.45648574829102 25.55168151855469 L 30.56628036499023 1.324600219726562 M 30.56628036499023 1.9073486328125e-06 L 61.13256072998047 26.55168151855469 L 0 26.55168151855469 L 30.56628036499023 1.9073486328125e-06 Z"/>
      </g>
      <g id="Polygon_2" data-name="Polygon 2" class="cls-6" transform="translate(70.063 60.009) rotate(-79)">
        <path class="cls-13" d="M 59.79452896118164 26.05168151855469 L 1.338033318519592 26.05168151855469 L 30.56628036499023 0.6622963547706604 L 59.79452896118164 26.05168151855469 Z"/>
        <path class="cls-14" d="M 30.56628036499023 1.324600219726562 L 2.676074981689453 25.55168151855469 L 58.45648574829102 25.55168151855469 L 30.56628036499023 1.324600219726562 M 30.56628036499023 1.9073486328125e-06 L 61.13256072998047 26.55168151855469 L 0 26.55168151855469 L 30.56628036499023 1.9073486328125e-06 Z"/>
      </g>
      <path id="Path_27" data-name="Path 27" class="cls-7" d="M0,0V50.792L11.651,59.7Z" transform="translate(0 6.842) rotate(-3)"/>
      <path id="Path_28" data-name="Path 28" class="cls-8" d="M13.169,0V50.792L0,59.7Z" transform="translate(93.612 6.849) rotate(-2)"/>
      <g id="Ellipse_17" data-name="Ellipse 17" class="cls-9" transform="translate(34.44 59.9)">
        <ellipse class="cls-13" cx="4.69" cy="5.794" rx="4.69" ry="5.794"/>
        <ellipse class="cls-15" cx="4.69" cy="5.794" rx="4.19" ry="5.294"/>
      </g>
      <g id="Ellipse_18" data-name="Ellipse 18" class="cls-9" transform="translate(65.34 60.452)">
        <ellipse class="cls-13" cx="4.69" cy="5.518" rx="4.69" ry="5.518"/>
        <ellipse class="cls-15" cx="4.69" cy="5.518" rx="4.19" ry="5.018"/>
      </g>
      <path id="Path_29" data-name="Path 29" class="cls-10" d="M19.771,0,0,7.081V25.053l19.771,8.335,18.853-8.335V7.081Z" transform="translate(36.161 70.839)"/>
      <g id="Ellipse_19" data-name="Ellipse 19" class="cls-11" transform="translate(41.315 82.074)">
        <ellipse class="cls-13" cx="5.168" cy="5.393" rx="5.168" ry="5.393"/>
        <ellipse class="cls-15" cx="5.168" cy="5.393" rx="4.668" ry="4.893"/>
      </g>
      <g id="Ellipse_20" data-name="Ellipse 20" class="cls-12" transform="translate(57.942 81.624)">
        <ellipse class="cls-13" cx="5.168" cy="5.393" rx="5.168" ry="5.393"/>
        <ellipse class="cls-15" cx="5.168" cy="5.393" rx="4.668" ry="4.893"/>
      </g>
    </g>
  </g>
</svg>
