<svg xmlns="http://www.w3.org/2000/svg" width="218.349" height="215.947" viewBox="0 0 218.349 215.947">
  <g id="Group_69" data-name="Group 69" transform="translate(-113.325 -234.935)" class="animal-avatar">
    <g id="Ellipse_3" data-name="Ellipse 3" transform="translate(133.043 282.142) rotate(-8)" fill="#f5f3ec" stroke="#000" stroke-width="1">
      <ellipse cx="85.779" cy="85.199" rx="85.779" ry="85.199" stroke="none"/>
      <ellipse cx="85.779" cy="85.199" rx="85.279" ry="84.699" fill="none"/>
    </g>
    <g id="Ellipse_5" data-name="Ellipse 5" transform="translate(290.691 234.935) rotate(45)" stroke="#000" stroke-width="1">
      <ellipse cx="28.979" cy="22.024" rx="28.979" ry="22.024" stroke="none"/>
      <ellipse cx="28.979" cy="22.024" rx="28.479" ry="21.524" fill="none"/>
    </g>
    <g id="Ellipse_10" data-name="Ellipse 10" transform="translate(113.325 297.751) rotate(-47)" stroke="#000" stroke-width="1">
      <ellipse cx="28.979" cy="22.024" rx="28.979" ry="22.024" stroke="none"/>
      <ellipse cx="28.979" cy="22.024" rx="28.479" ry="21.524" fill="none"/>
    </g>
    <path id="Path_23" data-name="Path 23" d="M-1237.23-306.475l18.45,7.858,18.932-7.858v12.14l-18.932,12.3-23.094-12.3Z" transform="translate(1481.672 523.934) rotate(-7)" stroke="#000" stroke-width="1"/>
    <line id="Line_22" data-name="Line 22" x1="1.871" y2="19.138" transform="translate(235.833 392.987) rotate(-7)" fill="none" stroke="#000" stroke-width="1"/>
    <line id="Line_23" data-name="Line 23" y1="11.223" x2="26.188" transform="translate(236.797 400.842) rotate(-7)" fill="none" stroke="#000" stroke-width="1"/>
    <line id="Line_24" data-name="Line 24" x1="21.378" y1="11.223" transform="translate(215.579 403.447) rotate(-7)" fill="none" stroke="#000" stroke-width="1"/>
    <g id="Group_8" data-name="Group 8" transform="translate(-1016.199 -405.552) rotate(-7)">
      <path id="Path_24" data-name="Path 24" d="M-1180.233-374.784l-22.32,12.8-11.764,18.095,11.764,18.095,16.992-18.095,21.78-10.476,8.278-7.619Z" transform="translate(2294.695 1246.286)" stroke="#707070" stroke-width="1"/>
      <g id="Ellipse_1" data-name="Ellipse 1" transform="translate(1102.76 886.445) rotate(-14)" fill="#fff" stroke="#000" stroke-width="1">
        <circle cx="5.796" cy="5.796" r="5.796" stroke="none"/>
        <circle cx="5.796" cy="5.796" r="5.296" fill="none"/>
      </g>
    </g>
    <g id="Group_7" data-name="Group 7" transform="translate(-1016.448 -405.521) rotate(-7)">
      <path id="Path_25" data-name="Path 25" d="M-1186.785-374.784l24.847,12.8,13.1,18.095-13.1,18.095-18.917-18.095L-1205.1-354.36l-9.216-7.619Z" transform="translate(2366.212 1246.286)" stroke="#707070" stroke-width="1"/>
      <g id="Ellipse_9" data-name="Ellipse 9" transform="translate(1170.582 884.753) rotate(-14)" fill="#fff" stroke="#000" stroke-width="1">
        <circle cx="5.796" cy="5.796" r="5.796" stroke="none"/>
        <circle cx="5.796" cy="5.796" r="5.296" fill="none"/>
      </g>
    </g>
  </g>
</svg>
