<svg xmlns="http://www.w3.org/2000/svg" width="176.941" height="260.495" viewBox="0 0 176.941 260.495">
  <g id="Group_11" data-name="Group 11" transform="translate(-555.974 -473.493) rotate(-11)" class="animal-avatar">
    <path id="Path_30" data-name="Path 30" d="M-1468.054-442.29h42.346l28.16,21.224L-1418-352.108l-17.064,27.316h-22.93l-17.281-27.316-19.854-68.958Z" transform="translate(1971.453 1104.28)" fill="#f9efce" stroke="#707070" stroke-width="1"/>
    <path id="Path_31" data-name="Path 31" d="M-1479.5-385.569l16.487,30.442h24.649l14.422-30.442-21.24-48.017h-13.186Z" transform="translate(1976.484 1135.448)" fill="#c39154" stroke="#707070" stroke-width="1"/>
    <path id="Path_32" data-name="Path 32" d="M0,0H27.844L9.3,21.432Z" transform="translate(478.173 688.823) rotate(9)" fill="#53321c" stroke="#707070" stroke-width="1"/>
    <path id="Path_33" data-name="Path 33" d="M28.384,0H0L18.9,21.432Z" transform="translate(543.688 691.021) rotate(-8)" fill="#53321c" stroke="#707070" stroke-width="1"/>
    <path id="Path_34" data-name="Path 34" d="M-1424.677-381.839v91.433h-58.611v-96.13l19.19,31.9h24.129Z" transform="translate(1977.219 1133.544)" fill="#f9efce" stroke="#707070" stroke-width="1"/>
    <path id="Path_35" data-name="Path 35" d="M-1496.069-486.609l-17.484,12.749-35.662-27.957h27.772Z" transform="translate(1990 1155.894)" fill="#c39154" stroke="#707070" stroke-width="1"/>
    <path id="Path_36" data-name="Path 36" d="M0,15.208,19.487,27.957,59.236,0H28.281Z" transform="translate(554.005 654.529) rotate(3)" fill="#c39154" stroke="#707070" stroke-width="1"/>
    <path id="Path_37" data-name="Path 37" d="M-1468.72-419.122h35.667l4.945,14.085-11.538,8.653h-21.6l-7.478-8.653Z" transform="translate(1974.394 1139.861)" fill="#90632e" stroke="#707070" stroke-width="1"/>
    <g id="Rectangle_2" data-name="Rectangle 2" transform="matrix(-0.899, 0.438, -0.438, -0.899, 523.236, 737.225)" fill="#53321c" stroke="#707070" stroke-width="1">
      <rect width="8.061" height="15.316" stroke="none"/>
      <rect x="0.5" y="0.5" width="7.061" height="14.316" fill="none"/>
    </g>
    <g id="Rectangle_3" data-name="Rectangle 3" transform="matrix(-0.966, -0.259, 0.259, -0.966, 534.871, 740.549)" fill="#53321c" stroke="#707070" stroke-width="1">
      <rect width="8.061" height="15.316" stroke="none"/>
      <rect x="0.5" y="0.5" width="7.061" height="14.316" fill="none"/>
    </g>
    <path id="Path_38" data-name="Path 38" d="M-1509.728-162.986h15.773l-22.54-49.583-12.362,8.241Z" transform="translate(2021.039 824.977)" fill="#90632e" stroke="#707070" stroke-width="1"/>
    <path id="Path_39" data-name="Path 39" d="M-1532.678-208.526l12.712-8.241-28.6-16.87Z" transform="translate(2024.861 829.061)" fill="#53321c" stroke="#707070" stroke-width="1"/>
    <path id="Path_38-2" data-name="Path 38" d="M-1512-162.986h-16.852l24.081-49.583,13.207,8.241Z" transform="translate(2053.619 824.977)" fill="#90632e" stroke="#707070" stroke-width="1"/>
    <path id="Path_39-2" data-name="Path 39" d="M-1534.985-208.526l-13.581-8.241,30.556-16.87Z" transform="translate(2097.036 829.061)" fill="#53321c" stroke="#707070" stroke-width="1"/>
    <path id="Path_40" data-name="Path 40" d="M-1478.287-338.728h19.273v13.186h-19.273Z" transform="translate(1972.219 1124.275)" fill="#c39254" stroke="#707070" stroke-width="1"/>
    <path id="Path_41" data-name="Path 41" d="M-1441.934-338.728h28.65v13.349h-28.65Z" transform="translate(1965.171 1124.275)" fill="#c39254" stroke="#707070" stroke-width="1"/>
    <path id="Path_42" data-name="Path 42" d="M-1478.287-308.353h39.816v20.969h-39.816Z" transform="translate(1972.219 1118.386)" fill="#c39254" stroke="#707070" stroke-width="1"/>
    <path id="Path_43" data-name="Path 43" d="M-1416.912-308.353h9.475v22.4h-9.475Z" transform="translate(1960.319 1118.386)" fill="#c39254" stroke="#707070" stroke-width="1"/>
  </g>
</svg>
