<svg xmlns="http://www.w3.org/2000/svg" width="339.229" height="241.04" viewBox="0 0 339.229 241.04">
  <g id="Group_18" data-name="Group 18" transform="translate(-1485.622 -848.891) rotate(3)" class="animal-avatar">
    <path id="Path_50" data-name="Path 50" d="M-334.813-316.438H-249.9l21.182,27.231-33.578,121.186h-40.1l-47.729-121.186Z" transform="translate(1990.703 1131.62)" fill="#91a4b3" stroke="#707070" stroke-width="1"/>
    <path id="Path_51" data-name="Path 51" d="M-336.918-325.407l62.463,23.246,59.767-23.246-20.6-26.131h-84.695Z" transform="translate(1977.495 1166.626)" fill="#6e828b" stroke="#707070" stroke-width="1"/>
    <path id="Path_52" data-name="Path 52" d="M-208.023-328.78l99.133-76.324,5.758,118.56-33.6,35.479-81.37-35.479Z" transform="translate(1970.011 1170)" fill="#5da5a1" stroke="#707070" stroke-width="1"/>
    <path id="Path_53" data-name="Path 53" d="M105.7,76.324,5.8,0,0,118.56l33.856,35.479L115.85,118.56Z" transform="matrix(0.995, -0.105, 0.105, 0.995, 1528.933, 777.005)" fill="#5da5a1" stroke="#707070" stroke-width="1"/>
    <path id="Path_54" data-name="Path 54" d="M-299.46-221.011H-346.7l22.39,43.936,74.9-17.183h-40.7Z" transform="translate(1978.112 1158.405)" fill="#6e828b" stroke="#707070" stroke-width="1"/>
    <path id="Path_55" data-name="Path 55" d="M-346.7-223.223v-32.905l31.441,9.144-6.706,23.761Z" transform="translate(1978.112 1160.617)" fill="#53646f" stroke="#707070" stroke-width="1"/>
    <path id="Path_56" data-name="Path 56" d="M-449.359-389.294l120.774,102.982-14.02-40.14Z" transform="translate(1984.578 1169.004)" fill="#52656d" stroke="#707070" stroke-width="1"/>
    <path id="Path_57" data-name="Path 57" d="M-110.311-405.1-217.394-287.646l10.479-41.779Z" transform="translate(1969.967 1170)" fill="#52656d" stroke="#707070" stroke-width="1"/>
    <line id="Line_25" data-name="Line 25" x2="27.173" transform="translate(1690.631 904.14)" fill="none" stroke="#707070" stroke-width="1"/>
    <line id="Line_26" data-name="Line 26" x2="27.173" transform="translate(1690.631 912.573)" fill="none" stroke="#707070" stroke-width="1"/>
    <line id="Line_27" data-name="Line 27" x2="27.173" transform="translate(1692.505 923.817)" fill="none" stroke="#707070" stroke-width="1"/>
    <line id="Line_28" data-name="Line 28" x2="27.173" transform="translate(1692.505 932.251)" fill="none" stroke="#707070" stroke-width="1"/>
    <line id="Line_29" data-name="Line 29" x2="27.173" transform="translate(1692.505 943.495)" fill="none" stroke="#707070" stroke-width="1"/>
    <path id="Path_58" data-name="Path 58" d="M-320.467-279.389l28.836,5.635L-312.705-263.7Z" transform="translate(1976.459 1162.082)" fill="#52636d" stroke="#707070" stroke-width="1"/>
    <path id="Path_59" data-name="Path 59" d="M32.044,0,0,6.774l23.419,12.09Z" transform="translate(1720.057 882.919) rotate(-7)" fill="#52636e" stroke="#707070" stroke-width="1"/>
    <path id="Path_60" data-name="Path 60" d="M-305.08-238.569v76.288l10.628-54.107Z" transform="translate(1975.49 1159.511)" fill="#fff" stroke="#707070" stroke-width="1"/>
    <path id="Path_61" data-name="Path 61" d="M-295.82-238.569v76.288l-9.26-54.107Z" transform="translate(2036.225 1162.386)" fill="#fff" stroke="#707070" stroke-width="1"/>
  </g>
</svg>
