<svg xmlns="http://www.w3.org/2000/svg" width="160.502" height="207.866" viewBox="0 0 160.502 207.866">
  <g id="Group_71" data-name="Group 71" transform="translate(-1214.648 -155.514)" class="animal-avatar">
    <path id="Path_44" data-name="Path 44" d="M-830.511-1000.632l55.655-10.912,64.895,10.912,16.1,67.923-50.1,58.585h-44.955L-848.5-932.709Z" transform="matrix(0.999, 0.035, -0.035, 0.999, 2032.698, 1260.669)" fill="#f5f3ec" stroke="#707070" stroke-width="1"/>
    <path id="Path_47" data-name="Path 47" d="M-845.386-919.571l44.116-17.988-13.23-36.084,24.463-22.04h20.953l26.175,22.04-13.658,36.084,45.721,17.988,8.98-11.7-15.923-64.416-62.363-16.508-57.227,10.762-18.4,70.162Z" transform="matrix(0.999, 0.035, -0.035, 0.999, 2040.703, 1257.895)" fill="#333" stroke="#707070" stroke-width="1"/>
    <path id="Path_46" data-name="Path 46" d="M40.948,0,0,65.515,47.518,90.71,58.9,77.45Z" transform="translate(1298.485 159.786) rotate(3)" fill="#fff6e8" stroke="#707070" stroke-width="1"/>
    <path id="Path_45" data-name="Path 45" d="M16.033,0,52.6,65.515,10.166,90.71,0,77.45Z" transform="matrix(0.996, -0.087, 0.087, 0.996, 1233.436, 161.568)" fill="#fff7e4" stroke="#707070" stroke-width="1"/>
    <path id="Path_48" data-name="Path 48" d="M-1000-873.842h42.4l-8.813,21.9H-989.4Z" transform="matrix(0.999, 0.035, -0.035, 0.999, 2244.008, 1213.157)" stroke="#707070" stroke-width="1"/>
    <path id="Path_49" data-name="Path 49" d="M-1089.3-841.837l19.247,8.495,8.708-8.495,9.285,8.495,21.523-8.495-19.481,3.476-11.327-9.18-8.708,9.18Z" transform="matrix(0.999, 0.035, -0.035, 0.999, 2327.701, 1210.94)" stroke="#707070" stroke-width="1"/>
    <g id="Group_14" data-name="Group 14" transform="matrix(0.999, 0.035, -0.035, 0.999, 1323.414, 269.816)">
      <g id="Ellipse_21" data-name="Ellipse 21" fill="#fff" stroke="#707070" stroke-width="1">
        <circle cx="15.142" cy="15.142" r="15.142" stroke="none"/>
        <circle cx="15.142" cy="15.142" r="14.642" fill="none"/>
      </g>
      <g id="Ellipse_22" data-name="Ellipse 22" transform="translate(4.732 3.785)" stroke="#707070" stroke-width="1">
        <ellipse cx="10.883" cy="11.829" rx="10.883" ry="11.829" stroke="none"/>
        <ellipse cx="10.883" cy="11.829" rx="10.383" ry="11.329" fill="none"/>
      </g>
    </g>
    <g id="Group_15" data-name="Group 15" transform="matrix(0.999, 0.035, -0.035, 0.999, 1242.471, 266.989)">
      <g id="Ellipse_21-2" data-name="Ellipse 21" fill="#fff" stroke="#707070" stroke-width="1">
        <circle cx="15.142" cy="15.142" r="15.142" stroke="none"/>
        <circle cx="15.142" cy="15.142" r="14.642" fill="none"/>
      </g>
      <g id="Ellipse_22-2" data-name="Ellipse 22" transform="translate(3.785 3.785)" stroke="#707070" stroke-width="1">
        <ellipse cx="11.356" cy="11.829" rx="11.356" ry="11.829" stroke="none"/>
        <ellipse cx="11.356" cy="11.829" rx="10.856" ry="11.329" fill="none"/>
      </g>
    </g>
  </g>
</svg>
