<svg xmlns="http://www.w3.org/2000/svg" xmlns:xlink="http://www.w3.org/1999/xlink" width="1920" height="1080" viewBox="0 0 1920 1080">
  <defs>
    <clipPath id="clip-Login_page">
      <rect width="1920" height="1080"/>
    </clipPath>
  </defs>
  <g id="Login_page" data-name="Login page" clip-path="url(#clip-Login_page)">
    <rect width="1920" height="1080" fill="#f2d86b"/>
    <text id="What_s_in_My_Zoo_" data-name="What’s in My Zoo?" transform="translate(474 514)" fill="#ff5916" font-size="130" font-family="GOODPEOPLERegular, GOOD PEOPLE"><tspan x="0" y="0">What’s in My Zoo?</tspan></text>
    <g id="Group_3" data-name="Group 3" transform="matrix(0.996, -0.087, 0.087, 0.996, -133.809, 251.507)">
      <g id="Ellipse_12" data-name="Ellipse 12" transform="translate(150 559)" fill="#53321a" stroke="#707070" stroke-width="1">
        <ellipse cx="83.757" cy="105.189" rx="83.757" ry="105.189" stroke="none"/>
        <ellipse cx="83.757" cy="105.189" rx="83.257" ry="104.689" fill="none"/>
      </g>
      <path id="Path_1" data-name="Path 1" d="M-1798.02-521.091l34.744,15.942,44.349-15.942,15.4,24.892-27.718,33.243h-59.271l-31.376-33.243Z" transform="translate(1996.469 1166.252)" fill="#91642e" stroke="#707070" stroke-width="1"/>
      <path id="Path_2" data-name="Path 2" d="M-1776-454.442l-10.122,13.325V-414.3h61.35v-26.818l-14.064-13.325Z" transform="translate(1987.816 1163.377)" fill="#c49355" stroke="#707070" stroke-width="1"/>
      <g id="Ellipse_13" data-name="Ellipse 13" transform="translate(211.757 686.275)" fill="#fff" stroke="#707070" stroke-width="1">
        <ellipse cx="22" cy="16" rx="22" ry="16" stroke="none"/>
        <ellipse cx="22" cy="16" rx="21.5" ry="15.5" fill="none"/>
      </g>
      <g id="Ellipse_14" data-name="Ellipse 14" transform="translate(218.984 695.354)" stroke="#707070" stroke-width="1">
        <ellipse cx="7" cy="8" rx="7" ry="8" stroke="none"/>
        <ellipse cx="7" cy="8" rx="6.5" ry="7.5" fill="none"/>
      </g>
      <g id="Ellipse_15" data-name="Ellipse 15" transform="translate(233.559 695.354)" stroke="#707070" stroke-width="1">
        <ellipse cx="7" cy="8" rx="7" ry="8" stroke="none"/>
        <ellipse cx="7" cy="8" rx="6.5" ry="7.5" fill="none"/>
      </g>
      <path id="Path_3" data-name="Path 3" d="M-1519.312-372.033h24.628s1.815,9.569-11.56,9.569S-1519.312-372.033-1519.312-372.033Z" transform="translate(1714.191 1041.578)" stroke="#707070" stroke-width="1"/>
      <path id="Path_4" data-name="Path 4" d="M-1519.312-372.033h24.628s1.815,9.569-11.56,9.569S-1519.312-372.033-1519.312-372.033Z" transform="translate(1766.267 1041.578)" stroke="#707070" stroke-width="1"/>
    </g>
    <g id="Group_4" data-name="Group 4" transform="matrix(0.995, -0.105, 0.105, 0.995, 446.62, -535.729)">
      <g id="Ellipse_16" data-name="Ellipse 16" transform="translate(162 653.774)" fill="#d1521d" stroke="#707070" stroke-width="1">
        <ellipse cx="95.5" cy="100" rx="95.5" ry="100" stroke="none"/>
        <ellipse cx="95.5" cy="100" rx="95" ry="99.5" fill="none"/>
      </g>
      <path id="Path_5" data-name="Path 5" d="M-1755.283-444.186l32.358,12.253,36.588-12.253,20.541,35.855-20.541,38.713h-11.554l-8.987,35.026h-30.811l-9.629-35.026h-17.331l-13.7-38.713Z" transform="translate(1979.522 1153.588)" fill="#ffc14c" stroke="#707070" stroke-width="1"/>
      <path id="Path_6" data-name="Path 6" d="M-1687.656-453.6l-36.224,15.4-30.884-15.4,10.6,36.641-10.6,26.462,30.884,19.95,28.141-19.95-10.785-26.462Z" transform="translate(1978.657 1163.004)" fill="#f99b1a" stroke="#707070" stroke-width="1"/>
      <path id="Path_7" data-name="Path 7" d="M-1765.951-418.424l17.028,6.811v7.379Z" transform="translate(1983.043 1159.06)" fill="#6c3411" stroke="#707070" stroke-width="1"/>
      <path id="Path_8" data-name="Path 8" d="M0,0,17.028,6.811V14.19Z" transform="translate(291.001 739.14) rotate(120)" fill="#6f381b" stroke="#707070" stroke-width="1"/>
      <path id="Path_9" data-name="Path 9" d="M-1756.362-384.687l28.837,21.31,29.181-21.31-29.181,6.614Z" transform="translate(1981.968 1155.278)" fill="#d25319" stroke="#707070" stroke-width="1"/>
      <path id="Path_10" data-name="Path 10" d="M-1408.175-330.17l-30.2,21.334,30.2-16.179,28.091,16.179Z" transform="translate(1663.708 1122.624)" fill="#926128" stroke="#707070" stroke-width="1"/>
      <line id="Line_10" data-name="Line 10" x1="63.928" y2="10.655" transform="translate(190.856 792.066)" fill="none" stroke="#fff" stroke-width="1"/>
      <line id="Line_11" data-name="Line 11" x1="63.928" y2="21.309" transform="translate(190.856 792.066)" fill="none" stroke="#fff" stroke-width="1"/>
      <line id="Line_12" data-name="Line 12" x1="37.291" y2="26.637" transform="translate(217.493 792.066)" fill="none" stroke="#fff" stroke-width="1"/>
      <line id="Line_13" data-name="Line 13" x2="66.591" y2="5.327" transform="translate(254.784 792.066)" fill="none" stroke="#fff" stroke-width="1"/>
      <line id="Line_14" data-name="Line 14" x2="58.6" y2="21.309" transform="translate(254.784 792.066)" fill="none" stroke="#fff" stroke-width="1"/>
      <line id="Line_15" data-name="Line 15" x2="58.6" y2="13.318" transform="translate(254.784 792.066)" fill="none" stroke="#fff" stroke-width="1"/>
    </g>
    <g id="Group_70" data-name="Group 70">
      <g id="Rectangle_1" data-name="Rectangle 1" transform="translate(862 584)" fill="#fdf2c5" stroke="#707070" stroke-width="1">
        <rect width="196" height="88" rx="36" stroke="none"/>
        <rect x="0.5" y="0.5" width="195" height="87" rx="35.5" fill="none"/>
      </g>
      <text id="Login" transform="translate(885 651)" fill="#ffad35" font-size="73" font-family="DailyHours, Daily Hours"><tspan x="0" y="0">Login</tspan></text>
    </g>
    <g id="Group_6" data-name="Group 6" transform="translate(1055.129 -44.287) rotate(7)">
      <path id="Path_12" data-name="Path 12" d="M-1636.928-499.037h36.968l38.929,36.577,16.462,38.281-48.095,80.628h-50.866l-41.566-80.628,12.784-38.281Z" transform="translate(1990.624 1161.685)" fill="#e06d1e" stroke="#707070" stroke-width="1"/>
      <path id="Path_13" data-name="Path 13" d="M-1673.2-469.493l-20.839-45.853,20.839-48.039,23.387,13.8,6.707,17.884v30.179Z" transform="translate(1990 1169.78)" fill="none" stroke="#707070" stroke-width="1"/>
      <path id="Path_14" data-name="Path 14" d="M-1673.2-469.493l-20.839-45.853,20.839-48.039,23.387,13.8,6.707,17.884v30.179Z" transform="translate(1990 1169.78)" fill="#f4a74f" stroke="#707070" stroke-width="1"/>
      <path id="Path_15" data-name="Path 15" d="M-1661.917-469.493l22.24-45.853-22.24-48.039-24.96,13.8-7.157,17.884v30.179Z" transform="translate(2091.28 1169.78)" fill="#f8a54f" stroke="#707070" stroke-width="1"/>
      <path id="Path_16" data-name="Path 16" d="M6.65,0,0,89.761,24.031,67.406Z" transform="matrix(0.998, -0.07, 0.07, 0.998, 311.681, 607.343)" fill="#fff" stroke="#707070" stroke-width="1"/>
      <path id="Path_17" data-name="Path 17" d="M22.139,0l8.47,89.761L0,67.406Z" transform="translate(410.035 604.865) rotate(7)" fill="#fff" stroke="#707070" stroke-width="1"/>
      <path id="Path_18" data-name="Path 18" d="M-1312.35-378.979h22.194l4.794,26.53Z" transform="translate(1639.148 1095.566)" fill="#6f3719" stroke="#707070" stroke-width="1"/>
      <path id="Path_19" data-name="Path 19" d="M-1347.389-340.336h50.38l-7.246,38.7-19.624,7.246-17.531-7.246Z" transform="translate(1697.594 1056.923)" fill="#f7841f" stroke="#707070" stroke-width="1"/>
      <path id="Path_20" data-name="Path 20" d="M-1285.362-378.979h-22.194l-4.793,26.53Z" transform="translate(1708.274 1095.566)" fill="#6f3719" stroke="#707070" stroke-width="1"/>
      <path id="Path_21" data-name="Path 21" d="M-1339.807-262.328l18.959,8.521,20.972-8.521-20.972,29.27Z" transform="translate(1694.065 1015.754)" fill="#6f3618" stroke="#707070" stroke-width="1"/>
      <path id="Path_22" data-name="Path 22" d="M-1311.554-262.328l9.207,25.449-14.331,20.955-14.783-4.894-16.55,4.894-14.819-20.955,10.992-25.449,20.377,30.408Z" transform="translate(1705.743 1015.754)" fill="#f8efcf" stroke="#707070" stroke-width="1"/>
      <line id="Line_16" data-name="Line 16" x1="46.333" y1="39.339" transform="translate(327.03 743.544)" fill="none" stroke="#707070" stroke-width="1"/>
      <line id="Line_17" data-name="Line 17" x1="46.333" y1="19.232" transform="translate(327.03 763.651)" fill="none" stroke="#707070" stroke-width="1"/>
      <line id="Line_18" data-name="Line 18" x1="37.591" y2="6.994" transform="translate(335.772 782.883)" fill="none" stroke="#707070" stroke-width="1"/>
      <line id="Line_19" data-name="Line 19" y1="39.339" x2="39.339" transform="translate(373.363 743.544)" fill="none" stroke="#707070" stroke-width="1"/>
      <line id="Line_20" data-name="Line 20" y1="20.107" x2="49.83" transform="translate(373.363 762.776)" fill="none" stroke="#707070" stroke-width="1"/>
      <line id="Line_21" data-name="Line 21" x2="29.723" y2="3.497" transform="translate(373.363 782.883)" fill="none" stroke="#707070" stroke-width="1"/>
    </g>
    <g id="Group_69" data-name="Group 69">
      <g id="Ellipse_3" data-name="Ellipse 3" transform="translate(133.043 282.142) rotate(-8)" fill="#f5f3ec" stroke="#000" stroke-width="1">
        <ellipse cx="85.779" cy="85.199" rx="85.779" ry="85.199" stroke="none"/>
        <ellipse cx="85.779" cy="85.199" rx="85.279" ry="84.699" fill="none"/>
      </g>
      <g id="Ellipse_5" data-name="Ellipse 5" transform="translate(290.691 234.935) rotate(45)" stroke="#000" stroke-width="1">
        <ellipse cx="28.979" cy="22.024" rx="28.979" ry="22.024" stroke="none"/>
        <ellipse cx="28.979" cy="22.024" rx="28.479" ry="21.524" fill="none"/>
      </g>
      <g id="Ellipse_10" data-name="Ellipse 10" transform="translate(113.325 297.751) rotate(-47)" stroke="#000" stroke-width="1">
        <ellipse cx="28.979" cy="22.024" rx="28.979" ry="22.024" stroke="none"/>
        <ellipse cx="28.979" cy="22.024" rx="28.479" ry="21.524" fill="none"/>
      </g>
      <path id="Path_23" data-name="Path 23" d="M-1237.23-306.475l18.45,7.858,18.932-7.858v12.14l-18.932,12.3-23.094-12.3Z" transform="translate(1481.672 523.934) rotate(-7)" stroke="#000" stroke-width="1"/>
      <line id="Line_22" data-name="Line 22" x1="1.871" y2="19.138" transform="translate(235.833 392.987) rotate(-7)" fill="none" stroke="#000" stroke-width="1"/>
      <line id="Line_23" data-name="Line 23" y1="11.223" x2="26.188" transform="translate(236.797 400.842) rotate(-7)" fill="none" stroke="#000" stroke-width="1"/>
      <line id="Line_24" data-name="Line 24" x1="21.378" y1="11.223" transform="translate(215.579 403.447) rotate(-7)" fill="none" stroke="#000" stroke-width="1"/>
      <g id="Group_8" data-name="Group 8" transform="translate(-1016.199 -405.552) rotate(-7)">
        <path id="Path_24" data-name="Path 24" d="M-1180.233-374.784l-22.32,12.8-11.764,18.095,11.764,18.095,16.992-18.095,21.78-10.476,8.278-7.619Z" transform="translate(2294.695 1246.286)" stroke="#707070" stroke-width="1"/>
        <g id="Ellipse_1" data-name="Ellipse 1" transform="translate(1102.76 886.445) rotate(-14)" fill="#fff" stroke="#000" stroke-width="1">
          <circle cx="5.796" cy="5.796" r="5.796" stroke="none"/>
          <circle cx="5.796" cy="5.796" r="5.296" fill="none"/>
        </g>
      </g>
      <g id="Group_7" data-name="Group 7" transform="translate(-1016.448 -405.521) rotate(-7)">
        <path id="Path_25" data-name="Path 25" d="M-1186.785-374.784l24.847,12.8,13.1,18.095-13.1,18.095-18.917-18.095L-1205.1-354.36l-9.216-7.619Z" transform="translate(2366.212 1246.286)" stroke="#707070" stroke-width="1"/>
        <g id="Ellipse_9" data-name="Ellipse 9" transform="translate(1170.582 884.753) rotate(-14)" fill="#fff" stroke="#000" stroke-width="1">
          <circle cx="5.796" cy="5.796" r="5.796" stroke="none"/>
          <circle cx="5.796" cy="5.796" r="5.296" fill="none"/>
        </g>
      </g>
    </g>
    <text id="Developed_by:_Rain_Wu_Louis_He_Qihan_Liu_UofT_Engineering_Love_Peace_" data-name="Developed by: Rain Wu, Louis He, Qihan Liu
UofT Engineering
❤️ Love &amp; Peace ❤️" transform="translate(960 976)" font-size="20" font-family="Helvetica"><tspan x="-198.267" y="0">Developed by: Rain Wu, Louis He, Qihan Liu</tspan><tspan x="-77.646" y="24">UofT Engineering</tspan><tspan font-family="AppleColorEmoji, Apple Color Emoji"><tspan x="-90.822" y="55">❤️</tspan><tspan y="55" xml:space="preserve" font-family="Helvetica"> Love &amp; Peace </tspan><tspan y="55">❤️</tspan></tspan></text>
    <g id="Group_10" data-name="Group 10" transform="matrix(0.995, 0.105, -0.105, 0.995, 121.108, -227.128)">
      <path id="Path_26" data-name="Path 26" d="M-528.1-1033.414h85.389l34.406,50.737,7.766,64.968-80.84,40.174-81.561-40.174,6.094-64.968Z" transform="translate(2080.448 1218.427)" fill="#efabba" stroke="#707070" stroke-width="1"/>
      <g id="Polygon_1" data-name="Polygon 1" transform="translate(1542.811 125.443) rotate(76)" fill="#ec7793">
        <path d="M 109.4522094726562 47.61948776245117 L 1.338042497634888 47.61948776245117 L 55.39512634277344 0.6623076796531677 L 109.4522094726562 47.61948776245117 Z" stroke="none"/>
        <path d="M 55.39512634277344 1.3245849609375 L 2.676071166992188 47.11948394775391 L 108.1141815185547 47.11948394775391 L 55.39512634277344 1.3245849609375 M 55.39512634277344 -7.62939453125e-06 L 110.7902526855469 48.11948394775391 L 0 48.11948394775391 L 55.39512634277344 -7.62939453125e-06 Z" stroke="none" fill="#707070"/>
      </g>
      <g id="Polygon_2" data-name="Polygon 2" transform="translate(1622.975 234.198) rotate(-79)" fill="#e97892">
        <path d="M 109.4522094726562 47.61948776245117 L 1.338042497634888 47.61948776245117 L 55.39512634277344 0.6623076796531677 L 109.4522094726562 47.61948776245117 Z" stroke="none"/>
        <path d="M 55.39512634277344 1.3245849609375 L 2.676071166992188 47.11948394775391 L 108.1141815185547 47.11948394775391 L 55.39512634277344 1.3245849609375 M 55.39512634277344 -7.62939453125e-06 L 110.7902526855469 48.11948394775391 L 0 48.11948394775391 L 55.39512634277344 -7.62939453125e-06 Z" stroke="none" fill="#707070"/>
      </g>
      <path id="Path_27" data-name="Path 27" d="M0,0V92.049l21.115,16.14Z" transform="translate(1496 137.843) rotate(-3)" fill="#e44373" stroke="#707070" stroke-width="1"/>
      <path id="Path_28" data-name="Path 28" d="M23.867,0V92.049L0,108.19Z" transform="translate(1665.652 137.855) rotate(-2)" fill="#e74172" stroke="#707070" stroke-width="1"/>
      <g id="Ellipse_17" data-name="Ellipse 17" transform="translate(1558.415 234)" stroke="#707070" stroke-width="1">
        <ellipse cx="8.5" cy="10.5" rx="8.5" ry="10.5" stroke="none"/>
        <ellipse cx="8.5" cy="10.5" rx="8" ry="10" fill="none"/>
      </g>
      <g id="Ellipse_18" data-name="Ellipse 18" transform="translate(1614.415 235)" stroke="#707070" stroke-width="1">
        <ellipse cx="8.5" cy="10" rx="8.5" ry="10" stroke="none"/>
        <ellipse cx="8.5" cy="10" rx="8" ry="9.5" fill="none"/>
      </g>
      <path id="Path_29" data-name="Path 29" d="M-784.636-958l-35.831,12.833V-912.6l35.831,15.106,34.167-15.106v-32.571Z" transform="translate(2382.002 1211.824)" fill="#e24677" stroke="#707070" stroke-width="1"/>
      <g id="Ellipse_19" data-name="Ellipse 19" transform="translate(1570.874 274.185)" fill="#c20d56" stroke="#707070" stroke-width="1">
        <ellipse cx="9.366" cy="9.773" rx="9.366" ry="9.773" stroke="none"/>
        <ellipse cx="9.366" cy="9.773" rx="8.866" ry="9.273" fill="none"/>
      </g>
      <g id="Ellipse_20" data-name="Ellipse 20" transform="translate(1601.008 273.37)" fill="#c51153" stroke="#707070" stroke-width="1">
        <ellipse cx="9.366" cy="9.773" rx="9.366" ry="9.773" stroke="none"/>
        <ellipse cx="9.366" cy="9.773" rx="8.866" ry="9.273" fill="none"/>
      </g>
    </g>
    <g id="Group_11" data-name="Group 11" transform="translate(-96.563 116.512) rotate(-11)">
      <path id="Path_30" data-name="Path 30" d="M-1468.054-442.29h42.346l28.16,21.224L-1418-352.108l-17.064,27.316h-22.93l-17.281-27.316-19.854-68.958Z" transform="translate(1971.453 1104.28)" fill="#f9efce" stroke="#707070" stroke-width="1"/>
      <path id="Path_31" data-name="Path 31" d="M-1479.5-385.569l16.487,30.442h24.649l14.422-30.442-21.24-48.017h-13.186Z" transform="translate(1976.484 1135.448)" fill="#c39154" stroke="#707070" stroke-width="1"/>
      <path id="Path_32" data-name="Path 32" d="M0,0H27.844L9.3,21.432Z" transform="translate(478.173 688.823) rotate(9)" fill="#53321c" stroke="#707070" stroke-width="1"/>
      <path id="Path_33" data-name="Path 33" d="M28.384,0H0L18.9,21.432Z" transform="translate(543.688 691.021) rotate(-8)" fill="#53321c" stroke="#707070" stroke-width="1"/>
      <path id="Path_34" data-name="Path 34" d="M-1424.677-381.839v91.433h-58.611v-96.13l19.19,31.9h24.129Z" transform="translate(1977.219 1133.544)" fill="#f9efce" stroke="#707070" stroke-width="1"/>
      <path id="Path_35" data-name="Path 35" d="M-1496.069-486.609l-17.484,12.749-35.662-27.957h27.772Z" transform="translate(1990 1155.894)" fill="#c39154" stroke="#707070" stroke-width="1"/>
      <path id="Path_36" data-name="Path 36" d="M0,15.208,19.487,27.957,59.236,0H28.281Z" transform="translate(554.005 654.529) rotate(3)" fill="#c39154" stroke="#707070" stroke-width="1"/>
      <path id="Path_37" data-name="Path 37" d="M-1468.72-419.122h35.667l4.945,14.085-11.538,8.653h-21.6l-7.478-8.653Z" transform="translate(1974.394 1139.861)" fill="#90632e" stroke="#707070" stroke-width="1"/>
      <g id="Rectangle_2" data-name="Rectangle 2" transform="matrix(-0.899, 0.438, -0.438, -0.899, 523.236, 737.225)" fill="#53321c" stroke="#707070" stroke-width="1">
        <rect width="8.061" height="15.316" stroke="none"/>
        <rect x="0.5" y="0.5" width="7.061" height="14.316" fill="none"/>
      </g>
      <g id="Rectangle_3" data-name="Rectangle 3" transform="matrix(-0.966, -0.259, 0.259, -0.966, 534.871, 740.549)" fill="#53321c" stroke="#707070" stroke-width="1">
        <rect width="8.061" height="15.316" stroke="none"/>
        <rect x="0.5" y="0.5" width="7.061" height="14.316" fill="none"/>
      </g>
      <path id="Path_38" data-name="Path 38" d="M-1509.728-162.986h15.773l-22.54-49.583-12.362,8.241Z" transform="translate(2021.039 824.977)" fill="#90632e" stroke="#707070" stroke-width="1"/>
      <path id="Path_39" data-name="Path 39" d="M-1532.678-208.526l12.712-8.241-28.6-16.87Z" transform="translate(2024.861 829.061)" fill="#53321c" stroke="#707070" stroke-width="1"/>
      <path id="Path_38-2" data-name="Path 38" d="M-1512-162.986h-16.852l24.081-49.583,13.207,8.241Z" transform="translate(2053.619 824.977)" fill="#90632e" stroke="#707070" stroke-width="1"/>
      <path id="Path_39-2" data-name="Path 39" d="M-1534.985-208.526l-13.581-8.241,30.556-16.87Z" transform="translate(2097.036 829.061)" fill="#53321c" stroke="#707070" stroke-width="1"/>
      <path id="Path_40" data-name="Path 40" d="M-1478.287-338.728h19.273v13.186h-19.273Z" transform="translate(1972.219 1124.275)" fill="#c39254" stroke="#707070" stroke-width="1"/>
      <path id="Path_41" data-name="Path 41" d="M-1441.934-338.728h28.65v13.349h-28.65Z" transform="translate(1965.171 1124.275)" fill="#c39254" stroke="#707070" stroke-width="1"/>
      <path id="Path_42" data-name="Path 42" d="M-1478.287-308.353h39.816v20.969h-39.816Z" transform="translate(1972.219 1118.386)" fill="#c39254" stroke="#707070" stroke-width="1"/>
      <path id="Path_43" data-name="Path 43" d="M-1416.912-308.353h9.475v22.4h-9.475Z" transform="translate(1960.319 1118.386)" fill="#c39254" stroke="#707070" stroke-width="1"/>
    </g>
    <g id="Group_71" data-name="Group 71">
      <path id="Path_44" data-name="Path 44" d="M-830.511-1000.632l55.655-10.912,64.895,10.912,16.1,67.923-50.1,58.585h-44.955L-848.5-932.709Z" transform="matrix(0.999, 0.035, -0.035, 0.999, 2032.698, 1260.669)" fill="#f5f3ec" stroke="#707070" stroke-width="1"/>
      <path id="Path_47" data-name="Path 47" d="M-845.386-919.571l44.116-17.988-13.23-36.084,24.463-22.04h20.953l26.175,22.04-13.658,36.084,45.721,17.988,8.98-11.7-15.923-64.416-62.363-16.508-57.227,10.762-18.4,70.162Z" transform="matrix(0.999, 0.035, -0.035, 0.999, 2040.703, 1257.895)" fill="#333" stroke="#707070" stroke-width="1"/>
      <path id="Path_46" data-name="Path 46" d="M40.948,0,0,65.515,47.518,90.71,58.9,77.45Z" transform="translate(1298.485 159.786) rotate(3)" fill="#fff6e8" stroke="#707070" stroke-width="1"/>
      <path id="Path_45" data-name="Path 45" d="M16.033,0,52.6,65.515,10.166,90.71,0,77.45Z" transform="matrix(0.996, -0.087, 0.087, 0.996, 1233.436, 161.568)" fill="#fff7e4" stroke="#707070" stroke-width="1"/>
      <path id="Path_48" data-name="Path 48" d="M-1000-873.842h42.4l-8.813,21.9H-989.4Z" transform="matrix(0.999, 0.035, -0.035, 0.999, 2244.008, 1213.157)" stroke="#707070" stroke-width="1"/>
      <path id="Path_49" data-name="Path 49" d="M-1089.3-841.837l19.247,8.495,8.708-8.495,9.285,8.495,21.523-8.495-19.481,3.476-11.327-9.18-8.708,9.18Z" transform="matrix(0.999, 0.035, -0.035, 0.999, 2327.701, 1210.94)" stroke="#707070" stroke-width="1"/>
      <g id="Group_14" data-name="Group 14" transform="matrix(0.999, 0.035, -0.035, 0.999, 1323.414, 269.816)">
        <g id="Ellipse_21" data-name="Ellipse 21" fill="#fff" stroke="#707070" stroke-width="1">
          <circle cx="15.142" cy="15.142" r="15.142" stroke="none"/>
          <circle cx="15.142" cy="15.142" r="14.642" fill="none"/>
        </g>
        <g id="Ellipse_22" data-name="Ellipse 22" transform="translate(4.732 3.785)" stroke="#707070" stroke-width="1">
          <ellipse cx="10.883" cy="11.829" rx="10.883" ry="11.829" stroke="none"/>
          <ellipse cx="10.883" cy="11.829" rx="10.383" ry="11.329" fill="none"/>
        </g>
      </g>
      <g id="Group_15" data-name="Group 15" transform="matrix(0.999, 0.035, -0.035, 0.999, 1242.471, 266.989)">
        <g id="Ellipse_21-2" data-name="Ellipse 21" fill="#fff" stroke="#707070" stroke-width="1">
          <circle cx="15.142" cy="15.142" r="15.142" stroke="none"/>
          <circle cx="15.142" cy="15.142" r="14.642" fill="none"/>
        </g>
        <g id="Ellipse_22-2" data-name="Ellipse 22" transform="translate(3.785 3.785)" stroke="#707070" stroke-width="1">
          <ellipse cx="11.356" cy="11.829" rx="11.356" ry="11.829" stroke="none"/>
          <ellipse cx="11.356" cy="11.829" rx="10.856" ry="11.329" fill="none"/>
        </g>
      </g>
    </g>
    <g id="Group_18" data-name="Group 18" transform="translate(71.513 -88.258) rotate(3)">
      <path id="Path_50" data-name="Path 50" d="M-334.813-316.438H-249.9l21.182,27.231-33.578,121.186h-40.1l-47.729-121.186Z" transform="translate(1990.703 1131.62)" fill="#91a4b3" stroke="#707070" stroke-width="1"/>
      <path id="Path_51" data-name="Path 51" d="M-336.918-325.407l62.463,23.246,59.767-23.246-20.6-26.131h-84.695Z" transform="translate(1977.495 1166.626)" fill="#6e828b" stroke="#707070" stroke-width="1"/>
      <path id="Path_52" data-name="Path 52" d="M-208.023-328.78l99.133-76.324,5.758,118.56-33.6,35.479-81.37-35.479Z" transform="translate(1970.011 1170)" fill="#5da5a1" stroke="#707070" stroke-width="1"/>
      <path id="Path_53" data-name="Path 53" d="M105.7,76.324,5.8,0,0,118.56l33.856,35.479L115.85,118.56Z" transform="matrix(0.995, -0.105, 0.105, 0.995, 1528.933, 777.005)" fill="#5da5a1" stroke="#707070" stroke-width="1"/>
      <path id="Path_54" data-name="Path 54" d="M-299.46-221.011H-346.7l22.39,43.936,74.9-17.183h-40.7Z" transform="translate(1978.112 1158.405)" fill="#6e828b" stroke="#707070" stroke-width="1"/>
      <path id="Path_55" data-name="Path 55" d="M-346.7-223.223v-32.905l31.441,9.144-6.706,23.761Z" transform="translate(1978.112 1160.617)" fill="#53646f" stroke="#707070" stroke-width="1"/>
      <path id="Path_56" data-name="Path 56" d="M-449.359-389.294l120.774,102.982-14.02-40.14Z" transform="translate(1984.578 1169.004)" fill="#52656d" stroke="#707070" stroke-width="1"/>
      <path id="Path_57" data-name="Path 57" d="M-110.311-405.1-217.394-287.646l10.479-41.779Z" transform="translate(1969.967 1170)" fill="#52656d" stroke="#707070" stroke-width="1"/>
      <line id="Line_25" data-name="Line 25" x2="27.173" transform="translate(1690.631 904.14)" fill="none" stroke="#707070" stroke-width="1"/>
      <line id="Line_26" data-name="Line 26" x2="27.173" transform="translate(1690.631 912.573)" fill="none" stroke="#707070" stroke-width="1"/>
      <line id="Line_27" data-name="Line 27" x2="27.173" transform="translate(1692.505 923.817)" fill="none" stroke="#707070" stroke-width="1"/>
      <line id="Line_28" data-name="Line 28" x2="27.173" transform="translate(1692.505 932.251)" fill="none" stroke="#707070" stroke-width="1"/>
      <line id="Line_29" data-name="Line 29" x2="27.173" transform="translate(1692.505 943.495)" fill="none" stroke="#707070" stroke-width="1"/>
      <path id="Path_58" data-name="Path 58" d="M-320.467-279.389l28.836,5.635L-312.705-263.7Z" transform="translate(1976.459 1162.082)" fill="#52636d" stroke="#707070" stroke-width="1"/>
      <path id="Path_59" data-name="Path 59" d="M32.044,0,0,6.774l23.419,12.09Z" transform="translate(1720.057 882.919) rotate(-7)" fill="#52636e" stroke="#707070" stroke-width="1"/>
      <path id="Path_60" data-name="Path 60" d="M-305.08-238.569v76.288l10.628-54.107Z" transform="translate(1975.49 1159.511)" fill="#fff" stroke="#707070" stroke-width="1"/>
      <path id="Path_61" data-name="Path 61" d="M-295.82-238.569v76.288l-9.26-54.107Z" transform="translate(2036.225 1162.386)" fill="#fff" stroke="#707070" stroke-width="1"/>
    </g>
  </g>
</svg>
